HIERARCHY
ROOT RootJoint
{
    OFFSET   0.000000   0.000000   0.000000
    CHANNELS 6 Xposition Yposition Zposition Xrotation Yrotation Zrotation
    JOINT pelvis_lowerback
    {
        OFFSET   0.000000   0.093605   0.000000
        CHANNELS 3 Xrotation Yrotation Zrotation
        JOINT lowerback_torso
        {
            OFFSET   0.000000   0.100000   0.000000
            CHANNELS 3 Xrotation Yrotation Zrotation
            JOINT torso_head
            {
                OFFSET   0.000000   0.282350   0.000000
                CHANNELS 3 Xrotation Yrotation Zrotation
                End Site
                {
                    OFFSET   0.000000   0.192650   0.000000
                }
            }
            JOINT rTorso_Clavicle
            {
                OFFSET  -0.001000   0.157500   0.000000
                CHANNELS 3 Xrotation Yrotation Zrotation
                JOINT rShoulder
                {
                    OFFSET  -0.117647   0.000000   0.000000
                    CHANNELS 3 Xrotation Yrotation Zrotation
                    JOINT rElbow
                    {
                        OFFSET  -0.245000   0.000000   0.000000
                        CHANNELS 3 Xrotation Yrotation Zrotation
                        JOINT rWrist
                        {
                            OFFSET  -0.240000   0.000000   0.000000
                            CHANNELS 3 Xrotation Yrotation Zrotation
                            End Site
                            {
                                OFFSET  -0.116353  -0.002500   0.000000
                            }
                        }
                    }
                }
            }
            JOINT lTorso_Clavicle
            {
                OFFSET   0.001000   0.157500   0.000000
                CHANNELS 3 Xrotation Yrotation Zrotation
                JOINT lShoulder
                {
                    OFFSET   0.117647   0.000000   0.000000
                    CHANNELS 3 Xrotation Yrotation Zrotation
                    JOINT lElbow
                    {
                        OFFSET   0.245000   0.000000   0.000000
                        CHANNELS 3 Xrotation Yrotation Zrotation
                        JOINT lWrist
                        {
                            OFFSET   0.240000   0.000000   0.000000
                            CHANNELS 3 Xrotation Yrotation Zrotation
                            End Site
                            {
                                OFFSET   0.116353  -0.002500   0.000000
                            }
                        }
                    }
                }
            }
        }
    }
    JOINT rHip
    {
        OFFSET  -0.100000  -0.051395   0.000000
        CHANNELS 3 Xrotation Yrotation Zrotation
        JOINT rKnee
        {
            OFFSET   0.000000  -0.410000   0.000000
            CHANNELS 3 Xrotation Yrotation Zrotation
            JOINT rAnkle
            {
                OFFSET   0.000000  -0.390000   0.000000
                CHANNELS 3 Xrotation Yrotation Zrotation
                JOINT rToeJoint
                {
                    OFFSET   0.000000  -0.050000   0.130000
                    CHANNELS 3 Xrotation Yrotation Zrotation
                    End Site
                    {
                        OFFSET  -0.010000   0.002000   0.060000
                    }
                }
            }
        }
    }
    JOINT lHip
    {
        OFFSET   0.100000  -0.051395   0.000000
        CHANNELS 3 Xrotation Yrotation Zrotation
        JOINT lKnee
        {
            OFFSET   0.000000  -0.410000   0.000000
            CHANNELS 3 Xrotation Yrotation Zrotation
            JOINT lAnkle
            {
                OFFSET   0.000000  -0.390000   0.000000
                CHANNELS 3 Xrotation Yrotation Zrotation
                JOINT lToeJoint
                {
                    OFFSET   0.000000  -0.050000   0.130000
                    CHANNELS 3 Xrotation Yrotation Zrotation
                    End Site
                    {
                        OFFSET   0.010000   0.002000   0.060000
                    }
                }
            }
        }
    }
}
MOTION
Frames: 12
Frame Time:   0.008333
 -2.376719   0.925631   3.975860   0.000000   0.000000   0.000000   0.000000   0.000000   0.000000   0.000000   0.000000   0.000000   0.000000   0.000000   0.000000   0.000000   0.000000   0.000000   0.000000   0.000000   0.000000   0.000000   0.000000   0.000000   0.000000   0.000000   0.000000   0.000000   0.000000   0.000000   0.000000   0.000000   0.000000   0.000000   0.000000   0.000000   0.000000   0.000000   0.000000   0.000000   0.000000   0.000000   0.000000   0.000000   0.000000   0.000000   0.000000   0.000000   0.000000   0.000000   0.000000   0.000000   0.000000   0.000000   0.000000   0.000000   0.000000   0.000000   0.000000   0.000000   0.000000   0.000000   0.000000
 -2.376791   0.926316   3.975606   0.280778   0.134136  -0.178699  -0.328046  -0.035629   0.164930   0.053059  -0.176904   0.063112  -0.164522   0.187516   0.006817   0.201938  -0.316879   0.508923   0.824505   0.323444   1.957553   0.014295   0.647920  -0.005892   0.438008  -0.307756  -2.818219   0.262058   0.331123  -0.667482   1.388394  -0.172699  -1.830203   0.014797  -0.688526   0.010018   0.511136   0.221836   2.632169  -0.527641   0.155769   0.093375   0.604875   0.000455   0.001536  -0.633657  -0.166042  -0.022237  -0.331032  -0.000302  -0.000364  -0.747015  -0.190889   0.327971   1.343964  -0.001781  -0.000610  -1.030552   0.080969  -0.023776   0.342924  -0.000379   0.000078
 -2.376880   0.927456   3.975512   0.516761   0.250807  -0.383254  -0.646642  -0.072485   0.341148   0.105343  -0.357269   0.151536  -0.323356   0.367673   0.021649   0.401717  -0.590492   1.779346   1.621134   0.698121   4.525863   0.033143   1.278525  -0.010031   0.904515  -0.434369  -4.874053   0.526994   0.607332  -2.083529   2.749079  -0.418496  -4.273196   0.034240  -1.354170   0.017351   1.068923   0.278067   4.500791  -1.016465   0.316714   0.116675   1.221597   0.001372   0.002726  -1.229343  -0.319965  -0.044280  -0.687012  -0.000856  -0.000699  -1.403959  -0.375333   0.778453   2.743558  -0.004528  -0.001055  -1.989201   0.159758  -0.043074   0.634589  -0.000893   0.000119
 -2.376954   0.928615   3.975561   0.735932   0.346213  -0.584681  -0.965946  -0.114701   0.512646   0.139558  -0.533379   0.245499  -0.474892   0.535955   0.037584   0.594248  -0.820388   3.510020   2.383583   1.120917   7.495682   0.051592   1.872664  -0.012554   1.355763  -0.492812  -6.046317   0.781752   0.829176  -3.941980   4.073840  -0.747344  -7.115396   0.053288  -1.982018   0.022295   1.608349   0.262582   5.503420  -1.481322   0.468355   0.052735   1.802013   0.002493   0.003416  -1.786204  -0.464277  -0.066736  -1.023923  -0.001512  -0.000899  -1.972588  -0.551804   1.297381   4.081294  -0.007472  -0.001301  -2.882741   0.235138  -0.058901   0.899633  -0.001429   0.000134
 -2.377009   0.929477   3.975726   0.946353   0.421561  -0.777062  -1.283037  -0.163159   0.677831   0.154515  -0.705699   0.339817  -0.619822   0.692962   0.052920   0.781244  -1.018332   5.495141   3.111833   1.590805  10.733022   0.067441   2.429842  -0.013904   1.789255  -0.514907  -6.563764   1.025883   1.008725  -6.040067   5.362942  -1.164365 -10.220912   0.069725  -2.573485   0.025527   2.126992   0.195740   5.870650  -1.928905   0.610873  -0.088727   2.340804   0.003624   0.003716  -2.306946  -0.599803  -0.089528  -1.340454  -0.002174  -0.000998  -2.467453  -0.721162   1.862457   5.344121  -0.010250  -0.001381  -3.716958   0.306786  -0.071854   1.136734  -0.001907   0.000131
 -2.377048   0.929809   3.975986   1.149479   0.476598  -0.959092  -1.594518  -0.217545   0.836649   0.153724  -0.874650   0.433086  -0.757503   0.839455   0.067479   0.963581  -1.193595   7.598287   3.804950   2.104912  14.146554   0.079836   2.950736  -0.014424   2.204539  -0.516073  -6.642233   1.258555   1.155777  -8.243928   6.614314  -1.669692 -13.496918   0.082691  -3.130105   0.027554   2.625031   0.088701   5.816744  -2.360801   0.745559  -0.294009   2.839641   0.004648   0.003731  -2.793834  -0.726977  -0.112434  -1.636345  -0.002780  -0.001021  -2.898544  -0.883733   2.459514   6.533444  -0.012683  -0.001356  -4.495921   0.374643  -0.082357   1.348940  -0.002295   0.000112
 -2.377076   0.929443   3.976322   1.345201   0.509950  -1.130434  -1.897920  -0.277246   0.989122   0.140907  -1.040395   0.524753  -0.887442   0.976161   0.081344   1.141820  -1.352457   9.730245   4.461567   2.660025  17.674989   0.088679   3.436577  -0.014370   2.601406  -0.506581  -6.441281   1.478885   1.277525 -10.466058   7.824655  -2.261060 -16.880605   0.092079  -3.653396   0.028738   3.102427  -0.049024   5.499419  -2.777470   0.873524  -0.550039   3.301332   0.005502   0.003545  -3.248954  -0.846194  -0.135235  -1.911731  -0.003290  -0.000985  -3.273440  -1.039626   3.077440   7.652887  -0.014687  -0.001289  -5.223224   0.438735  -0.090758   1.539600  -0.002585   0.000080
 -2.376992   0.927643   3.976330   1.480358   0.518824  -1.256524  -2.011668  -0.329363   1.139257   0.086027  -1.182187   0.583373  -1.179376   0.964793   0.043436   1.284419  -1.326481  11.211948   5.075059   3.163228  21.081631   0.101861   4.132088  -0.016080   2.893778  -0.606495  -5.075921   1.628818   1.372506 -11.907532   8.864506  -3.009021 -20.322362   0.100396  -4.270366   0.030518   3.529720  -0.239773   4.101944  -3.172101   0.751221  -0.828239   3.899653   0.006516   0.002089  -3.427760  -0.995961   0.053653  -1.942774  -0.002693  -0.000722  -3.527185  -1.107808   3.587691   8.285793  -0.013919  -0.000814  -5.996286   0.587760  -0.041930   1.734453  -0.002804   0.000304
 -2.376871   0.924626   3.976150   1.612611   0.544151  -1.368171  -2.086532  -0.381501   1.286359   0.037503  -1.313596   0.635355  -1.460186   0.947895   0.004030   1.392864  -1.235400  12.412827   5.605541   3.707021  24.138874   0.107651   4.802196  -0.017285   3.189345  -0.596138  -3.775812   1.744718   1.405307 -13.074039   9.780673  -3.796353 -23.410046   0.102904  -4.865782   0.031404   3.945128  -0.546169   2.762467  -3.533640   0.623139  -1.087499   4.481215   0.007073   0.000980  -3.587954  -1.139196   0.229190  -1.934852  -0.002140  -0.000595  -3.821737  -1.171693   4.033628   8.798252  -0.012661  -0.000386  -6.724489   0.726832   0.005658   1.892503  -0.002767   0.000456
 -2.376734   0.920511   3.975883   1.739250   0.575306  -1.471835  -2.138669  -0.423508   1.428888  -0.004751  -1.429809   0.685883  -1.720102   0.931836  -0.032421   1.472345  -1.109580  13.410547   6.062415   4.265055  26.901381   0.108271   5.439817  -0.017952   3.481596  -0.518082  -2.700526   1.832820   1.402612 -14.041782  10.588370  -4.591359 -26.194315   0.101344  -5.431021   0.031379   4.343627  -0.898957   1.649230  -3.849215   0.504691  -1.319480   5.030175   0.007228   0.000199  -3.736419  -1.273304   0.392660  -1.923043  -0.001693  -0.000499  -4.148435  -1.234513   4.428625   9.245366  -0.011289  -0.000057  -7.405734   0.855544   0.051565   2.035007  -0.002629   0.000554
 -2.376501   0.919265   3.975970   1.769221   0.497702  -1.021789  -2.163673  -0.406000   1.129485  -0.025456  -1.493303   0.554984  -1.955818   0.918567  -0.081725   1.531041  -0.957096  14.534904   6.450891   4.833347  29.529367   0.107028   6.040724  -0.017800   3.766744  -0.421154  -1.831592   1.913764   1.402564 -15.033346  11.307471  -5.359321 -28.754450   0.097882  -5.948393   0.030425   4.720171  -1.178551   0.803444  -4.019329   0.410025  -2.009439   5.550625   0.006815  -0.000938  -3.864451  -1.401215   0.542284  -1.836604  -0.001272  -0.000654  -4.668390  -1.250825   3.941548  10.239891  -0.008881  -0.000699  -7.703213   0.944537  -0.132404   1.285096  -0.003490   0.000464
 -2.376729   0.918941   3.976321   1.774274   0.326963  -1.036636  -2.198534  -0.363844   1.264958  -0.044393  -1.523855   0.558684  -2.174376   0.906808  -0.129257   1.575117  -0.800915  15.463720   6.786500   5.387089  31.933164   0.103284   6.608108  -0.017080   4.040442  -0.282366  -0.982717   1.996040   1.412822 -15.961702  11.945275  -6.111626 -31.188566   0.092954  -6.438235   0.029015   5.075889  -1.483113  -0.077613  -4.290905   0.279011  -2.013067   6.037134   0.005448  -0.002126  -3.865309  -1.545495   0.741562  -1.760323  -0.001122  -0.000830  -4.971968  -1.245682   3.968559  10.966107  -0.007306  -0.001338  -8.120315   1.084012  -0.123214   1.421742  -0.002814   0.000378
